{"title":"Così come sei (1978) BluRay 1080p Dual-FILMESMEGA","uid":15431864,"size":2746303115,"categoryP":"video","categoryS":"movies","magnet":"?xt=urn:btih:3a1bb27dac1af64c8771d8e1abbfd01b81cc2374&amp;dn=Cos%26igrave%3B+come+sei+%281978%29+BluRay+1080p+Dual-FILMESMEGA&amp;tr=udp%3A%2F%2Ftracker.leechers-paradise.org%3A6969&amp;tr=udp%3A%2F%2Fzer0day.ch%3A1337&amp;tr=udp%3A%2F%2Fopen.demonii.com%3A1337&amp;tr=udp%3A%2F%2Ftracker.coppersurfer.tk%3A6969&amp;tr=udp%3A%2F%2Fexodus.desync.com%3A6969","seeders":0,"leechers":2,"uploader":"ScaryST","files":1,"time":1469729696,"description":"CRÉDITOS DE REMASTERIZADOR: JEF FERREIRA\r\n\r\nMEDIAINFO:\r\nVideo\r\nID                                       : 1\r\nFormat                                   : AVC\r\nFormat/Info                              : Advanced Video Codec\r\nFormat profile                           :   \r\nFormat settings, CABAC                   : Yes\r\nFormat settings, ReFrames                : 4 frames\r\nCodec ID                                 : avc1\r\nCodec ID/Info                            : Advanced Video Coding\r\nDuration                                 : 1 h 44 min\r\nBit rate                                 : 3 284 kb/s\r\nMaximum bit rate                         : 114 Mb/s\r\nWidth                                    : 1 920 pixels\r\nHeight                                   : 1 080 pixels\r\nDisplay aspect ratio                     : 16:9\r\nFrame rate mode                          : Constant\r\nFrame rate                               : 25.000 FPS\r\nColor space                              : YUV\r\nChroma subsampling                       : 4:2:0\r\nBit depth                                : 8 bits\r\nScan type                                : Progressive\r\nBits/(Pixel*Frame)                       : 0.063\r\nStream size                              : 2.40 GiB (94%)\r\nTitle                                    : FILMESMEGA\r\nWriting library                          : x264 core 146 r2555 0c21480\r\nEncoding settings                        : cabac=1 / ref=1 / deblock=1:0:0 / analyse=0x3:0x3 / me=dia / subme=1 / psy=1 / psy_rd=1.00:0.00 / mixed_ref=0 / me_range=16 / chroma_me=1 / trellis=0 / 8x8dct=1 / cqm=0 / deadzone=21,11 / fast_pskip=1 / chroma_qp_offset=0 / threads=12 / lookahead_threads=2 / sliced_threads=0 / nr=0 / decimate=1 / interlaced=0 / bluray_compat=0 / constrained_intra=0 / bframes=3 / b_pyramid=2 / b_adapt=1 / b_bias=0 / direct=1 / weightb=1 / open_gop=0 / weightp=1 / keyint=250 / keyint_min=25 / scenecut=40 / intra_refresh=0 / rc=abr / mbtree=0 / bitrate=3284 / ratetol=1.0 / qcomp=0.60 / qpmin=0 / qpmax=69 / qpstep=4 / ip_ratio=1.40 / pb_ratio=1.30 / aq=1:1.00\r\nLanguage                                 : Portuguese\r\nTagged date                              : UTC 2016-02-14 03:30:00\r\nMenus                                    : 3\r\n\r\nAudio #1\r\nID                                       : 2\r\nFormat                                   : MPEG Audio\r\nFormat version                           : Version 1\r\nFormat profile                           : Layer 3\r\nCodec ID                                 : 6B\r\nDuration                                 : 1 h 44 min\r\nBit rate mode                            : Constant\r\nBit rate                                 : 128 kb/s\r\nMaximum bit rate                         : 134 kb/s\r\nChannel(s)                               : 2 channels\r\nSampling rate                            : 44.1 kHz\r\nCompression mode                         : Lossy\r\nStream size                              : 95.8 MiB (4%)\r\nTitle                                    : resync by JEF_SPFC\r\nLanguage                                 : Portuguese\r\nEncoded date                             : UTC 2016-02-14 03:28:30\r\nTagged date                              : UTC 2016-02-14 03:30:00\r\n\r\nAudio #2\r\nID                                       : 3\r\nFormat                                   : AAC\r\nFormat/Info                              : Advanced Audio Codec\r\nFormat profile                           : LC\r\nCodec ID                                 : 40\r\nDuration                                 : 1 h 44 min\r\nBit rate mode                            : Variable\r\nBit rate                                 : 79.9 kb/s\r\nMaximum bit rate                         : 128 kb/s\r\nChannel(s)                               : 1 channel\r\nChannel positions                        : Front: C\r\nSampling rate                            : 44.1 kHz\r\nFrame rate                               : 43.066 FPS (1024 spf)\r\nCompression mode                         : Lossy\r\nStream size                              : 59.8 MiB (2%)\r\nTitle                                    : original audio\r\nLanguage                                 : Italian\r\nEncoded date                             : UTC 2016-02-14 03:28:45\r\nTagged date                              : UTC 2016-02-14 03:30:00\r\nMenu For                                 : 1","torrent":{"xt":"urn:btih:3a1bb27dac1af64c8771d8e1abbfd01b81cc2374","amp;dn":"Cos%26igrave%3B+come+sei+%281978%29+BluRay+1080p+Dual-FILMESMEGA","amp;tr":["udp%3A%2F%2Ftracker.leechers-paradise.org%3A6969","udp%3A%2F%2Fzer0day.ch%3A1337","udp%3A%2F%2Fopen.demonii.com%3A1337","udp%3A%2F%2Ftracker.coppersurfer.tk%3A6969","udp%3A%2F%2Fexodus.desync.com%3A6969"],"infoHash":"3a1bb27dac1af64c8771d8e1abbfd01b81cc2374","infoHashBuffer":{"type":"Buffer","data":[58,27,178,125,172,26,246,76,135,113,216,225,171,191,208,27,129,204,35,116]},"announce":[],"urlList":[]}}